<?xml version="1.0" encoding="UTF-8" standalone="no"?>
<!DOCTYPE svg PUBLIC "-//W3C//DTD SVG 1.1//EN"
 "http://www.w3.org/Graphics/SVG/1.1/DTD/svg11.dtd">
<!-- Generated by graphviz version 2.40.1 (20161225.0304)
 -->
<!-- Title: dependencies Pages: 1 -->
<svg width="2966pt" height="284pt"
 viewBox="0.00 0.00 2966.00 284.00" xmlns="http://www.w3.org/2000/svg" xmlns:xlink="http://www.w3.org/1999/xlink">
<g id="graph0" class="graph" transform="scale(1 1) rotate(0) translate(4 280)">
<title>dependencies</title>
<polygon fill="#ffffff" stroke="transparent" points="-4,4 -4,-280 2962,-280 2962,4 -4,4"/>
<text text-anchor="start" x="1458.0091" y="-42.4" font-family="sans-serif" font-weight="bold" font-size="14.00" fill="#000000">Legend</text>
<polygon fill="#ffffb3" stroke="transparent" points="1245,-10 1245,-30 1265,-30 1265,-10 1245,-10"/>
<text text-anchor="start" x="1268.629" y="-15.4" font-family="sans-serif" font-size="14.00" fill="#000000"> &#160;Declarations</text>
<polygon fill="#8dd3c7" stroke="transparent" points="1358,-10 1358,-30 1378,-30 1378,-10 1358,-10"/>
<text text-anchor="start" x="1381.7251" y="-15.4" font-family="sans-serif" font-size="14.00" fill="#000000"> &#160;Module</text>
<polygon fill="#80b1d3" stroke="transparent" points="1444,-10 1444,-30 1464,-30 1464,-10 1444,-10"/>
<text text-anchor="start" x="1467.7812" y="-15.4" font-family="sans-serif" font-size="14.00" fill="#000000"> &#160;Bootstrap</text>
<polygon fill="#fdb462" stroke="transparent" points="1541,-10 1541,-30 1561,-30 1561,-10 1541,-10"/>
<text text-anchor="start" x="1564.6732" y="-15.4" font-family="sans-serif" font-size="14.00" fill="#000000"> &#160;Providers</text>
<polygon fill="#fb8072" stroke="transparent" points="1637,-10 1637,-30 1657,-30 1657,-10 1637,-10"/>
<text text-anchor="start" x="1660.7258" y="-15.4" font-family="sans-serif" font-size="14.00" fill="#000000"> &#160;Exports</text>
<g id="clust1" class="cluster">
<title>cluster_AppModule</title>
<polygon fill="none" stroke="#000000" stroke-dasharray="1,5" points="8,-70 8,-268 2950,-268 2950,-70 8,-70"/>
</g>
<g id="clust2" class="cluster">
<title>cluster_AppModule_declarations</title>
<polygon fill="none" stroke="#000000" points="509,-78 509,-130 2942,-130 2942,-78 509,-78"/>
</g>
<g id="clust18" class="cluster">
<title>cluster_AppModule_imports</title>
<polygon fill="none" stroke="#000000" points="186,-78 186,-130 501,-130 501,-78 186,-78"/>
</g>
<g id="clust20" class="cluster">
<title>cluster_AppModule_bootstrap</title>
<polygon fill="none" stroke="#000000" points="1350,-208 1350,-260 1474,-260 1474,-208 1350,-208"/>
</g>
<g id="clust21" class="cluster">
<title>cluster_AppModule_providers</title>
<polygon fill="none" stroke="#000000" points="16,-78 16,-130 178,-130 178,-78 16,-78"/>
</g>
<!-- AddressFormComponent -->
<g id="node1" class="node">
<title>AddressFormComponent</title>
<polygon fill="#ffffb3" stroke="#000000" points="2933.5379,-122 2776.4621,-122 2776.4621,-86 2933.5379,-86 2933.5379,-122"/>
<text text-anchor="middle" x="2855" y="-99.8" font-family="Times,serif" font-size="14.00" fill="#000000">AddressFormComponent</text>
</g>
<!-- AppModule -->
<g id="node16" class="node">
<title>AppModule</title>
<polygon fill="#8dd3c7" stroke="#000000" points="1453.6571,-187 1450.6571,-191 1429.6571,-191 1426.6571,-187 1370.3429,-187 1370.3429,-151 1453.6571,-151 1453.6571,-187"/>
<text text-anchor="middle" x="1412" y="-164.8" font-family="Times,serif" font-size="14.00" fill="#000000">AppModule</text>
</g>
<!-- AddressFormComponent&#45;&gt;AppModule -->
<g id="edge1" class="edge">
<title>AddressFormComponent&#45;&gt;AppModule</title>
<path fill="none" stroke="#000000" d="M2855,-122.3228C2855,-145.6602 2855,-183 2855,-183 2855,-183 1464.0166,-183 1464.0166,-183"/>
<polygon fill="#000000" stroke="#000000" points="1464.0166,-179.5001 1454.0166,-183 1464.0165,-186.5001 1464.0166,-179.5001"/>
</g>
<!-- AppComponent -->
<g id="node2" class="node">
<title>AppComponent</title>
<polygon fill="#ffffb3" stroke="#000000" points="2758.9399,-122 2653.0601,-122 2653.0601,-86 2758.9399,-86 2758.9399,-122"/>
<text text-anchor="middle" x="2706" y="-99.8" font-family="Times,serif" font-size="14.00" fill="#000000">AppComponent</text>
</g>
<!-- AppComponent&#45;&gt;AppModule -->
<g id="edge2" class="edge">
<title>AppComponent&#45;&gt;AppModule</title>
<path fill="none" stroke="#000000" d="M2706,-122.1554C2706,-144.3519 2706,-179 2706,-179 2706,-179 1463.9523,-179 1463.9523,-179"/>
<polygon fill="#000000" stroke="#000000" points="1463.9524,-175.5001 1453.9523,-179 1463.9523,-182.5001 1463.9524,-175.5001"/>
</g>
<!-- ChangePasswordComponent -->
<g id="node3" class="node">
<title>ChangePasswordComponent</title>
<polygon fill="#ffffb3" stroke="#000000" points="2634.752,-122 2457.248,-122 2457.248,-86 2634.752,-86 2634.752,-122"/>
<text text-anchor="middle" x="2546" y="-99.8" font-family="Times,serif" font-size="14.00" fill="#000000">ChangePasswordComponent</text>
</g>
<!-- ChangePasswordComponent&#45;&gt;AppModule -->
<g id="edge3" class="edge">
<title>ChangePasswordComponent&#45;&gt;AppModule</title>
<path fill="none" stroke="#000000" d="M2546,-122.2843C2546,-143.3211 2546,-175 2546,-175 2546,-175 1463.7045,-175 1463.7045,-175"/>
<polygon fill="#000000" stroke="#000000" points="1463.7046,-171.5001 1453.7045,-175 1463.7045,-178.5001 1463.7046,-171.5001"/>
</g>
<!-- ContactPersonFormComponent -->
<g id="node4" class="node">
<title>ContactPersonFormComponent</title>
<polygon fill="#ffffb3" stroke="#000000" points="2438.8159,-122 2245.1841,-122 2245.1841,-86 2438.8159,-86 2438.8159,-122"/>
<text text-anchor="middle" x="2342" y="-99.8" font-family="Times,serif" font-size="14.00" fill="#000000">ContactPersonFormComponent</text>
</g>
<!-- ContactPersonFormComponent&#45;&gt;AppModule -->
<g id="edge4" class="edge">
<title>ContactPersonFormComponent&#45;&gt;AppModule</title>
<path fill="none" stroke="#000000" d="M2342,-122.308C2342,-142.1455 2342,-171 2342,-171 2342,-171 1463.7669,-171 1463.7669,-171"/>
<polygon fill="#000000" stroke="#000000" points="1463.7669,-167.5001 1453.7669,-171 1463.7668,-174.5001 1463.7669,-167.5001"/>
</g>
<!-- CreateEventComponent -->
<g id="node5" class="node">
<title>CreateEventComponent</title>
<polygon fill="#ffffb3" stroke="#000000" points="2227.0226,-122 2076.9774,-122 2076.9774,-86 2227.0226,-86 2227.0226,-122"/>
<text text-anchor="middle" x="2152" y="-99.8" font-family="Times,serif" font-size="14.00" fill="#000000">CreateEventComponent</text>
</g>
<!-- CreateEventComponent&#45;&gt;AppModule -->
<g id="edge5" class="edge">
<title>CreateEventComponent&#45;&gt;AppModule</title>
<path fill="none" stroke="#000000" d="M2152,-122.2222C2152,-140.8285 2152,-167 2152,-167 2152,-167 1463.9059,-167 1463.9059,-167"/>
<polygon fill="#000000" stroke="#000000" points="1463.9059,-163.5001 1453.9059,-167 1463.9058,-170.5001 1463.9059,-163.5001"/>
</g>
<!-- EditUsersComponent -->
<g id="node6" class="node">
<title>EditUsersComponent</title>
<polygon fill="#ffffb3" stroke="#000000" points="2058.038,-122 1921.962,-122 1921.962,-86 2058.038,-86 2058.038,-122"/>
<text text-anchor="middle" x="1990" y="-99.8" font-family="Times,serif" font-size="14.00" fill="#000000">EditUsersComponent</text>
</g>
<!-- EditUsersComponent&#45;&gt;AppModule -->
<g id="edge6" class="edge">
<title>EditUsersComponent&#45;&gt;AppModule</title>
<path fill="none" stroke="#000000" d="M1990,-122.0225C1990,-139.3734 1990,-163 1990,-163 1990,-163 1464.0339,-163 1464.0339,-163"/>
<polygon fill="#000000" stroke="#000000" points="1464.034,-159.5001 1454.0339,-163 1464.0339,-166.5001 1464.034,-159.5001"/>
</g>
<!-- EmailDialogComponent -->
<g id="node7" class="node">
<title>EmailDialogComponent</title>
<polygon fill="#ffffb3" stroke="#000000" points="1903.3739,-122 1750.6261,-122 1750.6261,-86 1903.3739,-86 1903.3739,-122"/>
<text text-anchor="middle" x="1827" y="-99.8" font-family="Times,serif" font-size="14.00" fill="#000000">EmailDialogComponent</text>
</g>
<!-- EmailDialogComponent&#45;&gt;AppModule -->
<g id="edge7" class="edge">
<title>EmailDialogComponent&#45;&gt;AppModule</title>
<path fill="none" stroke="#000000" d="M1827,-122.0091C1827,-138.0494 1827,-159 1827,-159 1827,-159 1463.6919,-159 1463.6919,-159"/>
<polygon fill="#000000" stroke="#000000" points="1463.6919,-155.5001 1453.6919,-159 1463.6919,-162.5001 1463.6919,-155.5001"/>
</g>
<!-- EventDialogComponent -->
<g id="node8" class="node">
<title>EventDialogComponent</title>
<polygon fill="#ffffb3" stroke="#000000" points="1733.0926,-122 1580.9074,-122 1580.9074,-86 1733.0926,-86 1733.0926,-122"/>
<text text-anchor="middle" x="1657" y="-99.8" font-family="Times,serif" font-size="14.00" fill="#000000">EventDialogComponent</text>
</g>
<!-- EventDialogComponent&#45;&gt;AppModule -->
<g id="edge8" class="edge">
<title>EventDialogComponent&#45;&gt;AppModule</title>
<path fill="none" stroke="#000000" d="M1657,-122.1243C1657,-136.7832 1657,-155 1657,-155 1657,-155 1463.8386,-155 1463.8386,-155"/>
<polygon fill="#000000" stroke="#000000" points="1463.8387,-151.5001 1453.8386,-155 1463.8386,-158.5001 1463.8387,-151.5001"/>
</g>
<!-- EventFormComponent -->
<g id="node9" class="node">
<title>EventFormComponent</title>
<polygon fill="#ffffb3" stroke="#000000" points="1563.3244,-122 1418.6756,-122 1418.6756,-86 1563.3244,-86 1563.3244,-122"/>
<text text-anchor="middle" x="1491" y="-99.8" font-family="Times,serif" font-size="14.00" fill="#000000">EventFormComponent</text>
</g>
<!-- EventFormComponent&#45;&gt;AppModule -->
<g id="edge9" class="edge">
<title>EventFormComponent&#45;&gt;AppModule</title>
<path fill="none" stroke="#000000" d="M1436.3331,-122.1061C1436.3331,-122.1061 1436.3331,-140.991 1436.3331,-140.991"/>
<polygon fill="#000000" stroke="#000000" points="1432.8332,-140.9909 1436.3331,-150.991 1439.8332,-140.991 1432.8332,-140.9909"/>
</g>
<!-- EventListComponent -->
<g id="node10" class="node">
<title>EventListComponent</title>
<polygon fill="#ffffb3" stroke="#000000" points="1400.7688,-122 1265.2312,-122 1265.2312,-86 1400.7688,-86 1400.7688,-122"/>
<text text-anchor="middle" x="1333" y="-99.8" font-family="Times,serif" font-size="14.00" fill="#000000">EventListComponent</text>
</g>
<!-- EventListComponent&#45;&gt;AppModule -->
<g id="edge10" class="edge">
<title>EventListComponent&#45;&gt;AppModule</title>
<path fill="none" stroke="#000000" d="M1385.528,-122.1061C1385.528,-122.1061 1385.528,-140.991 1385.528,-140.991"/>
<polygon fill="#000000" stroke="#000000" points="1382.0281,-140.9909 1385.528,-150.991 1389.0281,-140.991 1382.0281,-140.9909"/>
</g>
<!-- EventListTableComponent -->
<g id="node11" class="node">
<title>EventListTableComponent</title>
<polygon fill="#ffffb3" stroke="#000000" points="1246.6414,-122 1079.3586,-122 1079.3586,-86 1246.6414,-86 1246.6414,-122"/>
<text text-anchor="middle" x="1163" y="-99.8" font-family="Times,serif" font-size="14.00" fill="#000000">EventListTableComponent</text>
</g>
<!-- EventListTableComponent&#45;&gt;AppModule -->
<g id="edge11" class="edge">
<title>EventListTableComponent&#45;&gt;AppModule</title>
<path fill="none" stroke="#000000" d="M1163,-122.1243C1163,-136.7832 1163,-155 1163,-155 1163,-155 1360.323,-155 1360.323,-155"/>
<polygon fill="#000000" stroke="#000000" points="1360.323,-158.5001 1370.323,-155 1360.323,-151.5001 1360.323,-158.5001"/>
</g>
<!-- HeaderComponent -->
<g id="node12" class="node">
<title>HeaderComponent</title>
<polygon fill="#ffffb3" stroke="#000000" points="1060.7437,-122 939.2563,-122 939.2563,-86 1060.7437,-86 1060.7437,-122"/>
<text text-anchor="middle" x="1000" y="-99.8" font-family="Times,serif" font-size="14.00" fill="#000000">HeaderComponent</text>
</g>
<!-- HeaderComponent&#45;&gt;AppModule -->
<g id="edge12" class="edge">
<title>HeaderComponent&#45;&gt;AppModule</title>
<path fill="none" stroke="#000000" d="M1000,-122.0091C1000,-138.0494 1000,-159 1000,-159 1000,-159 1360.2279,-159 1360.2279,-159"/>
<polygon fill="#000000" stroke="#000000" points="1360.228,-162.5001 1370.2279,-159 1360.2279,-155.5001 1360.228,-162.5001"/>
</g>
<!-- LoginComponent -->
<g id="node13" class="node">
<title>LoginComponent</title>
<polygon fill="#ffffb3" stroke="#000000" points="921.2758,-122 806.7242,-122 806.7242,-86 921.2758,-86 921.2758,-122"/>
<text text-anchor="middle" x="864" y="-99.8" font-family="Times,serif" font-size="14.00" fill="#000000">LoginComponent</text>
</g>
<!-- LoginComponent&#45;&gt;AppModule -->
<g id="edge13" class="edge">
<title>LoginComponent&#45;&gt;AppModule</title>
<path fill="none" stroke="#000000" d="M864,-122.0225C864,-139.3734 864,-163 864,-163 864,-163 1359.9093,-163 1359.9093,-163"/>
<polygon fill="#000000" stroke="#000000" points="1359.9093,-166.5001 1369.9093,-163 1359.9093,-159.5001 1359.9093,-166.5001"/>
</g>
<!-- SignUpComponent -->
<g id="node14" class="node">
<title>SignUpComponent</title>
<polygon fill="#ffffb3" stroke="#000000" points="789.1123,-122 664.8877,-122 664.8877,-86 789.1123,-86 789.1123,-122"/>
<text text-anchor="middle" x="727" y="-99.8" font-family="Times,serif" font-size="14.00" fill="#000000">SignUpComponent</text>
</g>
<!-- SignUpComponent&#45;&gt;AppModule -->
<g id="edge14" class="edge">
<title>SignUpComponent&#45;&gt;AppModule</title>
<path fill="none" stroke="#000000" d="M727,-122.2222C727,-140.8285 727,-167 727,-167 727,-167 1360.1813,-167 1360.1813,-167"/>
<polygon fill="#000000" stroke="#000000" points="1360.1814,-170.5001 1370.1813,-167 1360.1813,-163.5001 1360.1814,-170.5001"/>
</g>
<!-- StartSiteComponent -->
<g id="node15" class="node">
<title>StartSiteComponent</title>
<polygon fill="#ffffb3" stroke="#000000" points="646.5506,-122 517.4494,-122 517.4494,-86 646.5506,-86 646.5506,-122"/>
<text text-anchor="middle" x="582" y="-99.8" font-family="Times,serif" font-size="14.00" fill="#000000">StartSiteComponent</text>
</g>
<!-- StartSiteComponent&#45;&gt;AppModule -->
<g id="edge15" class="edge">
<title>StartSiteComponent&#45;&gt;AppModule</title>
<path fill="none" stroke="#000000" d="M582,-122.308C582,-142.1455 582,-171 582,-171 582,-171 1360.2714,-171 1360.2714,-171"/>
<polygon fill="#000000" stroke="#000000" points="1360.2714,-174.5001 1370.2714,-171 1360.2713,-167.5001 1360.2714,-174.5001"/>
</g>
<!-- AppComponent  -->
<g id="node19" class="node">
<title>AppComponent </title>
<polygon fill="#80b1d3" stroke="#000000" points="1466.439,-252 1357.561,-252 1357.561,-216 1466.439,-216 1466.439,-252"/>
<text text-anchor="middle" x="1412" y="-229.8" font-family="Times,serif" font-size="14.00" fill="#000000">AppComponent </text>
</g>
<!-- AppModule&#45;&gt;AppComponent  -->
<g id="edge18" class="edge">
<title>AppModule&#45;&gt;AppComponent </title>
<path fill="none" stroke="#000000" stroke-dasharray="1,5" d="M1412,-187.1061C1412,-187.1061 1412,-205.991 1412,-205.991"/>
<polygon fill="#000000" stroke="#000000" points="1408.5001,-205.9909 1412,-215.991 1415.5001,-205.991 1408.5001,-205.9909"/>
</g>
<!-- AngularMaterialModule -->
<g id="node17" class="node">
<title>AngularMaterialModule</title>
<polygon fill="#8dd3c7" stroke="#000000" points="493.3431,-122 490.3431,-126 469.3431,-126 466.3431,-122 340.6569,-122 340.6569,-86 493.3431,-86 493.3431,-122"/>
<text text-anchor="middle" x="417" y="-99.8" font-family="Times,serif" font-size="14.00" fill="#000000">AngularMaterialModule</text>
</g>
<!-- AngularMaterialModule&#45;&gt;AppModule -->
<g id="edge16" class="edge">
<title>AngularMaterialModule&#45;&gt;AppModule</title>
<path fill="none" stroke="#000000" d="M417,-122.2843C417,-143.3211 417,-175 417,-175 417,-175 1360.1978,-175 1360.1978,-175"/>
<polygon fill="#000000" stroke="#000000" points="1360.1978,-178.5001 1370.1978,-175 1360.1977,-171.5001 1360.1978,-178.5001"/>
</g>
<!-- AppRoutingModule -->
<g id="node18" class="node">
<title>AppRoutingModule</title>
<polygon fill="#8dd3c7" stroke="#000000" points="322.2744,-122 319.2744,-126 298.2744,-126 295.2744,-122 193.7256,-122 193.7256,-86 322.2744,-86 322.2744,-122"/>
<text text-anchor="middle" x="258" y="-99.8" font-family="Times,serif" font-size="14.00" fill="#000000">AppRoutingModule</text>
</g>
<!-- AppRoutingModule&#45;&gt;AppModule -->
<g id="edge17" class="edge">
<title>AppRoutingModule&#45;&gt;AppModule</title>
<path fill="none" stroke="#000000" d="M258,-122.1554C258,-144.3519 258,-179 258,-179 258,-179 1360.2468,-179 1360.2468,-179"/>
<polygon fill="#000000" stroke="#000000" points="1360.2468,-182.5001 1370.2468,-179 1360.2467,-175.5001 1360.2468,-182.5001"/>
</g>
<!-- AuthInterceptor -->
<g id="node20" class="node">
<title>AuthInterceptor</title>
<ellipse fill="#fdb462" stroke="#000000" cx="97" cy="-104" rx="72.9121" ry="18"/>
<text text-anchor="middle" x="97" y="-99.8" font-family="Times,serif" font-size="14.00" fill="#000000">AuthInterceptor</text>
</g>
<!-- AuthInterceptor&#45;&gt;AppModule -->
<g id="edge19" class="edge">
<title>AuthInterceptor&#45;&gt;AppModule</title>
<path fill="none" stroke="#000000" d="M97,-122.3228C97,-145.6602 97,-183 97,-183 97,-183 1360.1056,-183 1360.1056,-183"/>
<polygon fill="#000000" stroke="#000000" points="1360.1056,-186.5001 1370.1056,-183 1360.1056,-179.5001 1360.1056,-186.5001"/>
</g>
</g>
</svg>
