<?xml version="1.0" encoding="UTF-8" standalone="no"?>
<!DOCTYPE svg PUBLIC "-//W3C//DTD SVG 1.1//EN"
 "http://www.w3.org/Graphics/SVG/1.1/DTD/svg11.dtd">
<!-- Generated by graphviz version 2.40.1 (20161225.0304)
 -->
<!-- Title: dependencies Pages: 1 -->
<svg width="1079pt" height="211pt"
 viewBox="0.00 0.00 1079.00 211.00" xmlns="http://www.w3.org/2000/svg" xmlns:xlink="http://www.w3.org/1999/xlink">
<g id="graph0" class="graph" transform="scale(1 1) rotate(0) translate(4 207)">
<title>dependencies</title>
<polygon fill="#ffffff" stroke="transparent" points="-4,4 -4,-207 1075,-207 1075,4 -4,4"/>
<text text-anchor="start" x="514.5091" y="-42.4" font-family="sans-serif" font-weight="bold" font-size="14.00" fill="#000000">Legend</text>
<polygon fill="#ffffb3" stroke="transparent" points="301.5,-10 301.5,-30 321.5,-30 321.5,-10 301.5,-10"/>
<text text-anchor="start" x="325.129" y="-15.4" font-family="sans-serif" font-size="14.00" fill="#000000"> &#160;Declarations</text>
<polygon fill="#8dd3c7" stroke="transparent" points="414.5,-10 414.5,-30 434.5,-30 434.5,-10 414.5,-10"/>
<text text-anchor="start" x="438.2251" y="-15.4" font-family="sans-serif" font-size="14.00" fill="#000000"> &#160;Module</text>
<polygon fill="#80b1d3" stroke="transparent" points="500.5,-10 500.5,-30 520.5,-30 520.5,-10 500.5,-10"/>
<text text-anchor="start" x="524.2812" y="-15.4" font-family="sans-serif" font-size="14.00" fill="#000000"> &#160;Bootstrap</text>
<polygon fill="#fdb462" stroke="transparent" points="597.5,-10 597.5,-30 617.5,-30 617.5,-10 597.5,-10"/>
<text text-anchor="start" x="621.1732" y="-15.4" font-family="sans-serif" font-size="14.00" fill="#000000"> &#160;Providers</text>
<polygon fill="#fb8072" stroke="transparent" points="693.5,-10 693.5,-30 713.5,-30 713.5,-10 693.5,-10"/>
<text text-anchor="start" x="717.2258" y="-15.4" font-family="sans-serif" font-size="14.00" fill="#000000"> &#160;Exports</text>
<g id="clust1" class="cluster">
<title>cluster_EventModule</title>
<polygon fill="none" stroke="#000000" stroke-dasharray="1,5" points="8,-70 8,-195 1063,-195 1063,-70 8,-70"/>
</g>
<g id="clust2" class="cluster">
<title>cluster_EventModule_declarations</title>
<polygon fill="none" stroke="#000000" points="16,-78 16,-130 1055,-130 1055,-78 16,-78"/>
</g>
<!-- AddressFormComponent -->
<g id="node1" class="node">
<title>AddressFormComponent</title>
<polygon fill="#ffffb3" stroke="#000000" points="1046.5379,-122 889.4621,-122 889.4621,-86 1046.5379,-86 1046.5379,-122"/>
<text text-anchor="middle" x="968" y="-99.8" font-family="Times,serif" font-size="14.00" fill="#000000">AddressFormComponent</text>
</g>
<!-- EventModule -->
<g id="node7" class="node">
<title>EventModule</title>
<polygon fill="#8dd3c7" stroke="#000000" points="546.2078,-187 543.2078,-191 522.2078,-191 519.2078,-187 453.7922,-187 453.7922,-151 546.2078,-151 546.2078,-187"/>
<text text-anchor="middle" x="500" y="-164.8" font-family="Times,serif" font-size="14.00" fill="#000000">EventModule</text>
</g>
<!-- AddressFormComponent&#45;&gt;EventModule -->
<g id="edge1" class="edge">
<title>AddressFormComponent&#45;&gt;EventModule</title>
<path fill="none" stroke="#000000" d="M968,-122.2843C968,-143.3211 968,-175 968,-175 968,-175 556.1544,-175 556.1544,-175"/>
<polygon fill="#000000" stroke="#000000" points="556.1545,-171.5001 546.1544,-175 556.1544,-178.5001 556.1545,-171.5001"/>
</g>
<!-- ContactPersonFormComponent -->
<g id="node2" class="node">
<title>ContactPersonFormComponent</title>
<polygon fill="#ffffb3" stroke="#000000" points="871.8159,-122 678.1841,-122 678.1841,-86 871.8159,-86 871.8159,-122"/>
<text text-anchor="middle" x="775" y="-99.8" font-family="Times,serif" font-size="14.00" fill="#000000">ContactPersonFormComponent</text>
</g>
<!-- ContactPersonFormComponent&#45;&gt;EventModule -->
<g id="edge2" class="edge">
<title>ContactPersonFormComponent&#45;&gt;EventModule</title>
<path fill="none" stroke="#000000" d="M775,-122.0225C775,-139.3734 775,-163 775,-163 775,-163 556.339,-163 556.339,-163"/>
<polygon fill="#000000" stroke="#000000" points="556.3391,-159.5001 546.339,-163 556.339,-166.5001 556.3391,-159.5001"/>
</g>
<!-- CreateEventComponent -->
<g id="node3" class="node">
<title>CreateEventComponent</title>
<polygon fill="#ffffb3" stroke="#000000" points="660.0226,-122 509.9774,-122 509.9774,-86 660.0226,-86 660.0226,-122"/>
<text text-anchor="middle" x="585" y="-99.8" font-family="Times,serif" font-size="14.00" fill="#000000">CreateEventComponent</text>
</g>
<!-- CreateEventComponent&#45;&gt;EventModule -->
<g id="edge3" class="edge">
<title>CreateEventComponent&#45;&gt;EventModule</title>
<path fill="none" stroke="#000000" d="M527.9215,-122.1061C527.9215,-122.1061 527.9215,-140.991 527.9215,-140.991"/>
<polygon fill="#000000" stroke="#000000" points="524.4215,-140.9909 527.9215,-150.991 531.4215,-140.991 524.4215,-140.9909"/>
</g>
<!-- EventDialogComponent -->
<g id="node4" class="node">
<title>EventDialogComponent</title>
<polygon fill="#ffffb3" stroke="#000000" points="492.0926,-122 339.9074,-122 339.9074,-86 492.0926,-86 492.0926,-122"/>
<text text-anchor="middle" x="416" y="-99.8" font-family="Times,serif" font-size="14.00" fill="#000000">EventDialogComponent</text>
</g>
<!-- EventDialogComponent&#45;&gt;EventModule -->
<g id="edge4" class="edge">
<title>EventDialogComponent&#45;&gt;EventModule</title>
<path fill="none" stroke="#000000" d="M472.9713,-122.1061C472.9713,-122.1061 472.9713,-140.991 472.9713,-140.991"/>
<polygon fill="#000000" stroke="#000000" points="469.4713,-140.9909 472.9713,-150.991 476.4713,-140.991 469.4713,-140.9909"/>
</g>
<!-- EventFormComponent -->
<g id="node5" class="node">
<title>EventFormComponent</title>
<polygon fill="#ffffb3" stroke="#000000" points="322.3244,-122 177.6756,-122 177.6756,-86 322.3244,-86 322.3244,-122"/>
<text text-anchor="middle" x="250" y="-99.8" font-family="Times,serif" font-size="14.00" fill="#000000">EventFormComponent</text>
</g>
<!-- EventFormComponent&#45;&gt;EventModule -->
<g id="edge5" class="edge">
<title>EventFormComponent&#45;&gt;EventModule</title>
<path fill="none" stroke="#000000" d="M250,-122.0225C250,-139.3734 250,-163 250,-163 250,-163 443.8548,-163 443.8548,-163"/>
<polygon fill="#000000" stroke="#000000" points="443.8548,-166.5001 453.8548,-163 443.8548,-159.5001 443.8548,-166.5001"/>
</g>
<!-- EventListComponent -->
<g id="node6" class="node">
<title>EventListComponent</title>
<polygon fill="#ffffb3" stroke="#000000" points="159.7688,-122 24.2312,-122 24.2312,-86 159.7688,-86 159.7688,-122"/>
<text text-anchor="middle" x="92" y="-99.8" font-family="Times,serif" font-size="14.00" fill="#000000">EventListComponent</text>
</g>
<!-- EventListComponent&#45;&gt;EventModule -->
<g id="edge6" class="edge">
<title>EventListComponent&#45;&gt;EventModule</title>
<path fill="none" stroke="#000000" d="M92,-122.2843C92,-143.3211 92,-175 92,-175 92,-175 443.5944,-175 443.5944,-175"/>
<polygon fill="#000000" stroke="#000000" points="443.5945,-178.5001 453.5944,-175 443.5944,-171.5001 443.5945,-178.5001"/>
</g>
</g>
</svg>
