<?xml version="1.0" encoding="UTF-8" standalone="no"?>
<!DOCTYPE svg PUBLIC "-//W3C//DTD SVG 1.1//EN"
 "http://www.w3.org/Graphics/SVG/1.1/DTD/svg11.dtd">
<!-- Generated by graphviz version 2.40.1 (20161225.0304)
 -->
<!-- Title: dependencies Pages: 1 -->
<svg width="3081pt" height="284pt"
 viewBox="0.00 0.00 3081.00 284.00" xmlns="http://www.w3.org/2000/svg" xmlns:xlink="http://www.w3.org/1999/xlink">
<g id="graph0" class="graph" transform="scale(1 1) rotate(0) translate(4 280)">
<title>dependencies</title>
<polygon fill="#ffffff" stroke="transparent" points="-4,4 -4,-280 3077,-280 3077,4 -4,4"/>
<text text-anchor="start" x="1515.5091" y="-42.4" font-family="sans-serif" font-weight="bold" font-size="14.00" fill="#000000">Legend</text>
<polygon fill="#ffffb3" stroke="transparent" points="1302.5,-10 1302.5,-30 1322.5,-30 1322.5,-10 1302.5,-10"/>
<text text-anchor="start" x="1326.129" y="-15.4" font-family="sans-serif" font-size="14.00" fill="#000000"> &#160;Declarations</text>
<polygon fill="#8dd3c7" stroke="transparent" points="1415.5,-10 1415.5,-30 1435.5,-30 1435.5,-10 1415.5,-10"/>
<text text-anchor="start" x="1439.2251" y="-15.4" font-family="sans-serif" font-size="14.00" fill="#000000"> &#160;Module</text>
<polygon fill="#80b1d3" stroke="transparent" points="1501.5,-10 1501.5,-30 1521.5,-30 1521.5,-10 1501.5,-10"/>
<text text-anchor="start" x="1525.2812" y="-15.4" font-family="sans-serif" font-size="14.00" fill="#000000"> &#160;Bootstrap</text>
<polygon fill="#fdb462" stroke="transparent" points="1598.5,-10 1598.5,-30 1618.5,-30 1618.5,-10 1598.5,-10"/>
<text text-anchor="start" x="1622.1732" y="-15.4" font-family="sans-serif" font-size="14.00" fill="#000000"> &#160;Providers</text>
<polygon fill="#fb8072" stroke="transparent" points="1694.5,-10 1694.5,-30 1714.5,-30 1714.5,-10 1694.5,-10"/>
<text text-anchor="start" x="1718.2258" y="-15.4" font-family="sans-serif" font-size="14.00" fill="#000000"> &#160;Exports</text>
<g id="clust7" class="cluster">
<title>cluster_AppModule</title>
<polygon fill="none" stroke="#000000" stroke-dasharray="1,5" points="8,-70 8,-268 2949,-268 2949,-70 8,-70"/>
</g>
<g id="clust8" class="cluster">
<title>cluster_AppModule_declarations</title>
<polygon fill="none" stroke="#000000" points="509,-78 509,-130 2941,-130 2941,-78 509,-78"/>
</g>
<g id="clust24" class="cluster">
<title>cluster_AppModule_imports</title>
<polygon fill="none" stroke="#000000" points="186,-78 186,-130 501,-130 501,-78 186,-78"/>
</g>
<g id="clust26" class="cluster">
<title>cluster_AppModule_bootstrap</title>
<polygon fill="none" stroke="#000000" points="1391,-208 1391,-260 1515,-260 1515,-208 1391,-208"/>
</g>
<g id="clust27" class="cluster">
<title>cluster_AppModule_providers</title>
<polygon fill="none" stroke="#000000" points="16,-78 16,-130 178,-130 178,-78 16,-78"/>
</g>
<g id="clust40" class="cluster">
<title>cluster_EventModule</title>
<polygon fill="none" stroke="#000000" stroke-dasharray="1,5" points="2957,-143 2957,-195 3065,-195 3065,-143 2957,-143"/>
</g>
<!-- AddressFormComponent -->
<g id="node1" class="node">
<title>AddressFormComponent</title>
<polygon fill="#ffffb3" stroke="#000000" points="2778.5379,-122 2621.4621,-122 2621.4621,-86 2778.5379,-86 2778.5379,-122"/>
<text text-anchor="middle" x="2700" y="-99.8" font-family="Times,serif" font-size="14.00" fill="#000000">AddressFormComponent</text>
</g>
<!-- AppModule -->
<g id="node16" class="node">
<title>AppModule</title>
<polygon fill="#8dd3c7" stroke="#000000" points="1494.6571,-187 1491.6571,-191 1470.6571,-191 1467.6571,-187 1411.3429,-187 1411.3429,-151 1494.6571,-151 1494.6571,-187"/>
<text text-anchor="middle" x="1453" y="-164.8" font-family="Times,serif" font-size="14.00" fill="#000000">AppModule</text>
</g>
<!-- AddressFormComponent&#45;&gt;AppModule -->
<g id="edge1" class="edge">
<title>AddressFormComponent&#45;&gt;AppModule</title>
<path fill="none" stroke="#000000" d="M2673.7438,-122.0908C2673.7438,-145.1328 2673.7438,-182 2673.7438,-182 2673.7438,-182 1504.6676,-182 1504.6676,-182"/>
<polygon fill="#000000" stroke="#000000" points="1504.6677,-178.5001 1494.6676,-182 1504.6676,-185.5001 1504.6677,-178.5001"/>
</g>
<!-- EventModule -->
<g id="node21" class="node">
<title>EventModule</title>
<polygon fill="#8dd3c7" stroke="#000000" points="3057.2078,-187 3054.2078,-191 3033.2078,-191 3030.2078,-187 2964.7922,-187 2964.7922,-151 3057.2078,-151 3057.2078,-187"/>
<text text-anchor="middle" x="3011" y="-164.8" font-family="Times,serif" font-size="14.00" fill="#000000">EventModule</text>
</g>
<!-- AddressFormComponent&#45;&gt;EventModule -->
<g id="edge20" class="edge">
<title>AddressFormComponent&#45;&gt;EventModule</title>
<path fill="none" stroke="#000000" d="M2726.2562,-122.0511C2726.2562,-136.373 2726.2562,-154 2726.2562,-154 2726.2562,-154 2954.6173,-154 2954.6173,-154"/>
<polygon fill="#000000" stroke="#000000" points="2954.6173,-157.5001 2964.6173,-154 2954.6172,-150.5001 2954.6173,-157.5001"/>
</g>
<!-- AppComponent -->
<g id="node2" class="node">
<title>AppComponent</title>
<polygon fill="#ffffb3" stroke="#000000" points="1298.9399,-122 1193.0601,-122 1193.0601,-86 1298.9399,-86 1298.9399,-122"/>
<text text-anchor="middle" x="1246" y="-99.8" font-family="Times,serif" font-size="14.00" fill="#000000">AppComponent</text>
</g>
<!-- AppComponent&#45;&gt;AppModule -->
<g id="edge2" class="edge">
<title>AppComponent&#45;&gt;AppModule</title>
<path fill="none" stroke="#000000" d="M1246,-122.1243C1246,-136.7832 1246,-155 1246,-155 1246,-155 1401.1105,-155 1401.1105,-155"/>
<polygon fill="#000000" stroke="#000000" points="1401.1105,-158.5001 1411.1105,-155 1401.1104,-151.5001 1401.1105,-158.5001"/>
</g>
<!-- ChangePasswordComponent -->
<g id="node3" class="node">
<title>ChangePasswordComponent</title>
<polygon fill="#ffffb3" stroke="#000000" points="1174.752,-122 997.248,-122 997.248,-86 1174.752,-86 1174.752,-122"/>
<text text-anchor="middle" x="1086" y="-99.8" font-family="Times,serif" font-size="14.00" fill="#000000">ChangePasswordComponent</text>
</g>
<!-- ChangePasswordComponent&#45;&gt;AppModule -->
<g id="edge3" class="edge">
<title>ChangePasswordComponent&#45;&gt;AppModule</title>
<path fill="none" stroke="#000000" d="M1086,-122.0091C1086,-138.0494 1086,-159 1086,-159 1086,-159 1401.2577,-159 1401.2577,-159"/>
<polygon fill="#000000" stroke="#000000" points="1401.2578,-162.5001 1411.2577,-159 1401.2577,-155.5001 1401.2578,-162.5001"/>
</g>
<!-- ContactPersonFormComponent -->
<g id="node4" class="node">
<title>ContactPersonFormComponent</title>
<polygon fill="#ffffb3" stroke="#000000" points="2603.8159,-122 2410.1841,-122 2410.1841,-86 2603.8159,-86 2603.8159,-122"/>
<text text-anchor="middle" x="2507" y="-99.8" font-family="Times,serif" font-size="14.00" fill="#000000">ContactPersonFormComponent</text>
</g>
<!-- ContactPersonFormComponent&#45;&gt;AppModule -->
<g id="edge4" class="edge">
<title>ContactPersonFormComponent&#45;&gt;AppModule</title>
<path fill="none" stroke="#000000" d="M2474.7807,-122.0109C2474.7807,-144.4852 2474.7807,-180 2474.7807,-180 2474.7807,-180 1504.9599,-180 1504.9599,-180"/>
<polygon fill="#000000" stroke="#000000" points="1504.96,-176.5001 1494.9599,-180 1504.9599,-183.5001 1504.96,-176.5001"/>
</g>
<!-- ContactPersonFormComponent&#45;&gt;EventModule -->
<g id="edge21" class="edge">
<title>ContactPersonFormComponent&#45;&gt;EventModule</title>
<path fill="none" stroke="#000000" d="M2539.2193,-122.2396C2539.2193,-137.5706 2539.2193,-157 2539.2193,-157 2539.2193,-157 2954.4727,-157 2954.4727,-157"/>
<polygon fill="#000000" stroke="#000000" points="2954.4727,-160.5001 2964.4727,-157 2954.4727,-153.5001 2954.4727,-160.5001"/>
</g>
<!-- CreateEventComponent -->
<g id="node5" class="node">
<title>CreateEventComponent</title>
<polygon fill="#ffffb3" stroke="#000000" points="2392.0226,-122 2241.9774,-122 2241.9774,-86 2392.0226,-86 2392.0226,-122"/>
<text text-anchor="middle" x="2317" y="-99.8" font-family="Times,serif" font-size="14.00" fill="#000000">CreateEventComponent</text>
</g>
<!-- CreateEventComponent&#45;&gt;AppModule -->
<g id="edge5" class="edge">
<title>CreateEventComponent&#45;&gt;AppModule</title>
<path fill="none" stroke="#000000" d="M2291.913,-122.0449C2291.913,-143.6623 2291.913,-177 2291.913,-177 2291.913,-177 1504.8888,-177 1504.8888,-177"/>
<polygon fill="#000000" stroke="#000000" points="1504.8889,-173.5001 1494.8888,-177 1504.8888,-180.5001 1504.8889,-173.5001"/>
</g>
<!-- CreateEventComponent&#45;&gt;EventModule -->
<g id="edge22" class="edge">
<title>CreateEventComponent&#45;&gt;EventModule</title>
<path fill="none" stroke="#000000" d="M2342.087,-122.0091C2342.087,-138.0494 2342.087,-159 2342.087,-159 2342.087,-159 2954.759,-159 2954.759,-159"/>
<polygon fill="#000000" stroke="#000000" points="2954.759,-162.5001 2964.759,-159 2954.7589,-155.5001 2954.759,-162.5001"/>
</g>
<!-- EditUsersComponent -->
<g id="node6" class="node">
<title>EditUsersComponent</title>
<polygon fill="#ffffb3" stroke="#000000" points="653.038,-122 516.962,-122 516.962,-86 653.038,-86 653.038,-122"/>
<text text-anchor="middle" x="585" y="-99.8" font-family="Times,serif" font-size="14.00" fill="#000000">EditUsersComponent</text>
</g>
<!-- EditUsersComponent&#45;&gt;AppModule -->
<g id="edge6" class="edge">
<title>EditUsersComponent&#45;&gt;AppModule</title>
<path fill="none" stroke="#000000" d="M585,-122.308C585,-142.1455 585,-171 585,-171 585,-171 1401.1346,-171 1401.1346,-171"/>
<polygon fill="#000000" stroke="#000000" points="1401.1346,-174.5001 1411.1346,-171 1401.1345,-167.5001 1401.1346,-174.5001"/>
</g>
<!-- EmailDialogComponent -->
<g id="node7" class="node">
<title>EmailDialogComponent</title>
<polygon fill="#ffffb3" stroke="#000000" points="1891.3739,-122 1738.6261,-122 1738.6261,-86 1891.3739,-86 1891.3739,-122"/>
<text text-anchor="middle" x="1815" y="-99.8" font-family="Times,serif" font-size="14.00" fill="#000000">EmailDialogComponent</text>
</g>
<!-- EmailDialogComponent&#45;&gt;AppModule -->
<g id="edge7" class="edge">
<title>EmailDialogComponent&#45;&gt;AppModule</title>
<path fill="none" stroke="#000000" d="M1815,-122.1061C1815,-141.3391 1815,-169 1815,-169 1815,-169 1504.8796,-169 1504.8796,-169"/>
<polygon fill="#000000" stroke="#000000" points="1504.8797,-165.5001 1494.8796,-169 1504.8796,-172.5001 1504.8797,-165.5001"/>
</g>
<!-- EventDialogComponent -->
<g id="node8" class="node">
<title>EventDialogComponent</title>
<polygon fill="#ffffb3" stroke="#000000" points="2224.0926,-122 2071.9074,-122 2071.9074,-86 2224.0926,-86 2224.0926,-122"/>
<text text-anchor="middle" x="2148" y="-99.8" font-family="Times,serif" font-size="14.00" fill="#000000">EventDialogComponent</text>
</g>
<!-- EventDialogComponent&#45;&gt;AppModule -->
<g id="edge8" class="edge">
<title>EventDialogComponent&#45;&gt;AppModule</title>
<path fill="none" stroke="#000000" d="M2122.6512,-122.2843C2122.6512,-143.3211 2122.6512,-175 2122.6512,-175 2122.6512,-175 1504.8897,-175 1504.8897,-175"/>
<polygon fill="#000000" stroke="#000000" points="1504.8897,-171.5001 1494.8897,-175 1504.8896,-178.5001 1504.8897,-171.5001"/>
</g>
<!-- EventDialogComponent&#45;&gt;EventModule -->
<g id="edge23" class="edge">
<title>EventDialogComponent&#45;&gt;EventModule</title>
<path fill="none" stroke="#000000" d="M2173.3488,-122.0336C2173.3488,-139.0597 2173.3488,-162 2173.3488,-162 2173.3488,-162 2954.7711,-162 2954.7711,-162"/>
<polygon fill="#000000" stroke="#000000" points="2954.7711,-165.5001 2964.7711,-162 2954.771,-158.5001 2954.7711,-165.5001"/>
</g>
<!-- EventFormComponent -->
<g id="node9" class="node">
<title>EventFormComponent</title>
<polygon fill="#ffffb3" stroke="#000000" points="2054.3244,-122 1909.6756,-122 1909.6756,-86 2054.3244,-86 2054.3244,-122"/>
<text text-anchor="middle" x="1982" y="-99.8" font-family="Times,serif" font-size="14.00" fill="#000000">EventFormComponent</text>
</g>
<!-- EventFormComponent&#45;&gt;AppModule -->
<g id="edge9" class="edge">
<title>EventFormComponent&#45;&gt;AppModule</title>
<path fill="none" stroke="#000000" d="M1957.946,-122.2228C1957.946,-142.3652 1957.946,-172 1957.946,-172 1957.946,-172 1504.7514,-172 1504.7514,-172"/>
<polygon fill="#000000" stroke="#000000" points="1504.7515,-168.5001 1494.7514,-172 1504.7514,-175.5001 1504.7515,-168.5001"/>
</g>
<!-- EventFormComponent&#45;&gt;EventModule -->
<g id="edge24" class="edge">
<title>EventFormComponent&#45;&gt;EventModule</title>
<path fill="none" stroke="#000000" d="M2006.054,-122.002C2006.054,-139.6754 2006.054,-164 2006.054,-164 2006.054,-164 2954.8771,-164 2954.8771,-164"/>
<polygon fill="#000000" stroke="#000000" points="2954.8771,-167.5001 2964.8771,-164 2954.877,-160.5001 2954.8771,-167.5001"/>
</g>
<!-- EventListComponent -->
<g id="node10" class="node">
<title>EventListComponent</title>
<polygon fill="#ffffb3" stroke="#000000" points="2932.7688,-122 2797.2312,-122 2797.2312,-86 2932.7688,-86 2932.7688,-122"/>
<text text-anchor="middle" x="2865" y="-99.8" font-family="Times,serif" font-size="14.00" fill="#000000">EventListComponent</text>
</g>
<!-- EventListComponent&#45;&gt;AppModule -->
<g id="edge10" class="edge">
<title>EventListComponent&#45;&gt;AppModule</title>
<path fill="none" stroke="#000000" d="M2865,-122.3802C2865,-146.2785 2865,-185 2865,-185 2865,-185 1504.8753,-185 1504.8753,-185"/>
<polygon fill="#000000" stroke="#000000" points="1504.8753,-181.5001 1494.8753,-185 1504.8752,-188.5001 1504.8753,-181.5001"/>
</g>
<!-- EventListComponent&#45;&gt;EventModule -->
<g id="edge25" class="edge">
<title>EventListComponent&#45;&gt;EventModule</title>
<path fill="none" stroke="#000000" d="M2932.8709,-104C2970.9979,-104 3011,-104 3011,-104 3011,-104 3011,-140.8939 3011,-140.8939"/>
<polygon fill="#000000" stroke="#000000" points="3007.5001,-140.8938 3011,-150.8939 3014.5001,-140.8939 3007.5001,-140.8938"/>
</g>
<!-- EventListTableComponent -->
<g id="node11" class="node">
<title>EventListTableComponent</title>
<polygon fill="#ffffb3" stroke="#000000" points="978.6414,-122 811.3586,-122 811.3586,-86 978.6414,-86 978.6414,-122"/>
<text text-anchor="middle" x="895" y="-99.8" font-family="Times,serif" font-size="14.00" fill="#000000">EventListTableComponent</text>
</g>
<!-- EventListTableComponent&#45;&gt;AppModule -->
<g id="edge11" class="edge">
<title>EventListTableComponent&#45;&gt;AppModule</title>
<path fill="none" stroke="#000000" d="M895,-122.0225C895,-139.3734 895,-163 895,-163 895,-163 1401.0593,-163 1401.0593,-163"/>
<polygon fill="#000000" stroke="#000000" points="1401.0593,-166.5001 1411.0593,-163 1401.0593,-159.5001 1401.0593,-166.5001"/>
</g>
<!-- HeaderComponent -->
<g id="node12" class="node">
<title>HeaderComponent</title>
<polygon fill="#ffffb3" stroke="#000000" points="792.7437,-122 671.2563,-122 671.2563,-86 792.7437,-86 792.7437,-122"/>
<text text-anchor="middle" x="732" y="-99.8" font-family="Times,serif" font-size="14.00" fill="#000000">HeaderComponent</text>
</g>
<!-- HeaderComponent&#45;&gt;AppModule -->
<g id="edge12" class="edge">
<title>HeaderComponent&#45;&gt;AppModule</title>
<path fill="none" stroke="#000000" d="M732,-122.2222C732,-140.8285 732,-167 732,-167 732,-167 1401.1196,-167 1401.1196,-167"/>
<polygon fill="#000000" stroke="#000000" points="1401.1196,-170.5001 1411.1196,-167 1401.1195,-163.5001 1401.1196,-170.5001"/>
</g>
<!-- LoginComponent -->
<g id="node13" class="node">
<title>LoginComponent</title>
<polygon fill="#ffffb3" stroke="#000000" points="1720.2758,-122 1605.7242,-122 1605.7242,-86 1720.2758,-86 1720.2758,-122"/>
<text text-anchor="middle" x="1663" y="-99.8" font-family="Times,serif" font-size="14.00" fill="#000000">LoginComponent</text>
</g>
<!-- LoginComponent&#45;&gt;AppModule -->
<g id="edge13" class="edge">
<title>LoginComponent&#45;&gt;AppModule</title>
<path fill="none" stroke="#000000" d="M1663,-122.2222C1663,-140.8285 1663,-167 1663,-167 1663,-167 1504.7403,-167 1504.7403,-167"/>
<polygon fill="#000000" stroke="#000000" points="1504.7404,-163.5001 1494.7403,-167 1504.7403,-170.5001 1504.7404,-163.5001"/>
</g>
<!-- SignUpComponent -->
<g id="node14" class="node">
<title>SignUpComponent</title>
<polygon fill="#ffffb3" stroke="#000000" points="1588.1123,-122 1463.8877,-122 1463.8877,-86 1588.1123,-86 1588.1123,-122"/>
<text text-anchor="middle" x="1526" y="-99.8" font-family="Times,serif" font-size="14.00" fill="#000000">SignUpComponent</text>
</g>
<!-- SignUpComponent&#45;&gt;AppModule -->
<g id="edge14" class="edge">
<title>SignUpComponent&#45;&gt;AppModule</title>
<path fill="none" stroke="#000000" d="M1479.3861,-122.1061C1479.3861,-122.1061 1479.3861,-140.991 1479.3861,-140.991"/>
<polygon fill="#000000" stroke="#000000" points="1475.8861,-140.9909 1479.3861,-150.991 1482.8861,-140.991 1475.8861,-140.9909"/>
</g>
<!-- StartSiteComponent -->
<g id="node15" class="node">
<title>StartSiteComponent</title>
<polygon fill="#ffffb3" stroke="#000000" points="1445.5506,-122 1316.4494,-122 1316.4494,-86 1445.5506,-86 1445.5506,-122"/>
<text text-anchor="middle" x="1381" y="-99.8" font-family="Times,serif" font-size="14.00" fill="#000000">StartSiteComponent</text>
</g>
<!-- StartSiteComponent&#45;&gt;AppModule -->
<g id="edge15" class="edge">
<title>StartSiteComponent&#45;&gt;AppModule</title>
<path fill="none" stroke="#000000" d="M1428.4734,-122.1061C1428.4734,-122.1061 1428.4734,-140.991 1428.4734,-140.991"/>
<polygon fill="#000000" stroke="#000000" points="1424.9734,-140.9909 1428.4734,-150.991 1431.9734,-140.991 1424.9734,-140.9909"/>
</g>
<!-- AppComponent  -->
<g id="node19" class="node">
<title>AppComponent </title>
<polygon fill="#80b1d3" stroke="#000000" points="1507.439,-252 1398.561,-252 1398.561,-216 1507.439,-216 1507.439,-252"/>
<text text-anchor="middle" x="1453" y="-229.8" font-family="Times,serif" font-size="14.00" fill="#000000">AppComponent </text>
</g>
<!-- AppModule&#45;&gt;AppComponent  -->
<g id="edge18" class="edge">
<title>AppModule&#45;&gt;AppComponent </title>
<path fill="none" stroke="#000000" stroke-dasharray="1,5" d="M1453,-187.1061C1453,-187.1061 1453,-205.991 1453,-205.991"/>
<polygon fill="#000000" stroke="#000000" points="1449.5001,-205.9909 1453,-215.991 1456.5001,-205.991 1449.5001,-205.9909"/>
</g>
<!-- AngularMaterialModule -->
<g id="node17" class="node">
<title>AngularMaterialModule</title>
<polygon fill="#8dd3c7" stroke="#000000" points="493.3431,-122 490.3431,-126 469.3431,-126 466.3431,-122 340.6569,-122 340.6569,-86 493.3431,-86 493.3431,-122"/>
<text text-anchor="middle" x="417" y="-99.8" font-family="Times,serif" font-size="14.00" fill="#000000">AngularMaterialModule</text>
</g>
<!-- AngularMaterialModule&#45;&gt;AppModule -->
<g id="edge16" class="edge">
<title>AngularMaterialModule&#45;&gt;AppModule</title>
<path fill="none" stroke="#000000" d="M417,-122.2843C417,-143.3211 417,-175 417,-175 417,-175 1401.1044,-175 1401.1044,-175"/>
<polygon fill="#000000" stroke="#000000" points="1401.1045,-178.5001 1411.1044,-175 1401.1044,-171.5001 1401.1045,-178.5001"/>
</g>
<!-- AppRoutingModule -->
<g id="node18" class="node">
<title>AppRoutingModule</title>
<polygon fill="#8dd3c7" stroke="#000000" points="322.2744,-122 319.2744,-126 298.2744,-126 295.2744,-122 193.7256,-122 193.7256,-86 322.2744,-86 322.2744,-122"/>
<text text-anchor="middle" x="258" y="-99.8" font-family="Times,serif" font-size="14.00" fill="#000000">AppRoutingModule</text>
</g>
<!-- AppRoutingModule&#45;&gt;AppModule -->
<g id="edge17" class="edge">
<title>AppRoutingModule&#45;&gt;AppModule</title>
<path fill="none" stroke="#000000" d="M258,-122.1554C258,-144.3519 258,-179 258,-179 258,-179 1401.17,-179 1401.17,-179"/>
<polygon fill="#000000" stroke="#000000" points="1401.17,-182.5001 1411.17,-179 1401.17,-175.5001 1401.17,-182.5001"/>
</g>
<!-- AuthInterceptor -->
<g id="node20" class="node">
<title>AuthInterceptor</title>
<ellipse fill="#fdb462" stroke="#000000" cx="97" cy="-104" rx="72.9121" ry="18"/>
<text text-anchor="middle" x="97" y="-99.8" font-family="Times,serif" font-size="14.00" fill="#000000">AuthInterceptor</text>
</g>
<!-- AuthInterceptor&#45;&gt;AppModule -->
<g id="edge19" class="edge">
<title>AuthInterceptor&#45;&gt;AppModule</title>
<path fill="none" stroke="#000000" d="M97,-122.3228C97,-145.6602 97,-183 97,-183 97,-183 1401.3047,-183 1401.3047,-183"/>
<polygon fill="#000000" stroke="#000000" points="1401.3047,-186.5001 1411.3047,-183 1401.3047,-179.5001 1401.3047,-186.5001"/>
</g>
</g>
</svg>
